<svg xmlns="http://www.w3.org/2000/svg" viewBox="0 0 248 66" height="40" class="_1iz8dgs4y kk5w089 _1mpv4c10"><circle cy="32.98" cx="32.98" r="30" fill="#fff" class="kk5w08e"/><mask id="jobStreetCutArrowOutOfCircle"><circle fill="white" cx="32.98" cy="32.98" r="32.98"/><path fill="black" d="M33.76 12.58c0-1.14.92-2.06 2.06-2.06s2.06.92 2.06 2.06-.92 2.06-2.06 2.06-2.06-.92-2.06-2.06M40.18 19.51c0-1.26 1.02-2.28 2.27-2.28s2.28 1.02 2.28 2.28-1.02 2.27-2.28 2.27-2.27-1.02-2.27-2.27M33.76 19.51c0-1.14.92-2.06 2.06-2.06s2.06.92 2.06 2.06-.92 2.06-2.06 2.06-2.06-.93-2.06-2.06M47 26.46c0-1.41 1.14-2.55 2.55-2.55s2.55 1.14 2.55 2.55-1.14 2.55-2.55 2.55S47 27.87 47 26.46M40.18 26.44c0-1.26 1.02-2.27 2.27-2.27s2.28 1.02 2.28 2.27-1.02 2.27-2.28 2.27-2.27-1.02-2.27-2.27M33.76 26.44c0-1.14.92-2.06 2.06-2.06s2.06.92 2.06 2.06-.92 2.06-2.06 2.06-2.06-.92-2.06-2.06M27.64 26.44c0-1 .81-1.8 1.8-1.8s1.81.81 1.81 1.8-.81 1.8-1.81 1.8-1.8-.81-1.8-1.8M22.53 26.44c0-.85.69-1.55 1.54-1.55s1.54.69 1.54 1.55-.69 1.55-1.54 1.55-1.54-.69-1.54-1.55M17.66 26.44c0-.71.58-1.29 1.29-1.29s1.29.58 1.29 1.29-.57 1.29-1.29 1.29-1.29-.58-1.29-1.29M13.53 26.44c0-.57.46-1.03 1.03-1.03s1.03.46 1.03 1.03-.46 1.03-1.03 1.03-1.03-.46-1.03-1.03M9.63 26.44c0-.43.34-.77.77-.77s.77.35.77.77-.35.77-.77.77-.77-.35-.77-.77M6.33 26.44c0-.29.23-.51.52-.51s.51.23.51.51-.23.52-.51.52-.52-.23-.52-.52M47 33.39c0-1.41 1.14-2.55 2.55-2.55s2.55 1.15 2.55 2.55-1.14 2.55-2.55 2.55S47 34.8 47 33.39M40.18 33.37c0-1.26 1.02-2.27 2.27-2.27s2.28 1.01 2.28 2.27-1.02 2.28-2.28 2.28-2.27-1.02-2.27-2.28M33.76 33.37c0-1.14.92-2.06 2.06-2.06s2.06.92 2.06 2.06-.92 2.06-2.06 2.06-2.06-.92-2.06-2.06M27.64 33.37c0-1 .81-1.8 1.8-1.8s1.81.81 1.81 1.8-.81 1.8-1.81 1.8-1.8-.81-1.8-1.8M22.53 33.37c0-.85.69-1.55 1.54-1.55s1.54.69 1.54 1.55-.69 1.55-1.54 1.55-1.54-.69-1.54-1.55M17.66 33.37c0-.71.58-1.29 1.29-1.29s1.29.57 1.29 1.29-.57 1.29-1.29 1.29-1.29-.58-1.29-1.29M13.53 33.37c0-.57.46-1.03 1.03-1.03s1.03.46 1.03 1.03-.46 1.03-1.03 1.03-1.03-.46-1.03-1.03M9.63 33.37c0-.43.34-.77.77-.77s.77.35.77.77-.35.77-.77.77-.77-.34-.77-.77M6.33 33.37c0-.29.23-.52.52-.52s.51.23.51.52-.23.52-.51.52-.52-.23-.52-.52M54 33.44c0-1.55 1.26-2.8 2.8-2.8s2.8 1.25 2.8 2.8-1.25 2.79-2.8 2.79-2.8-1.25-2.8-2.79M47 40.32c0-1.41 1.14-2.55 2.55-2.55s2.55 1.14 2.55 2.55-1.14 2.55-2.55 2.55S47 41.73 47 40.32M40.18 40.3c0-1.26 1.02-2.28 2.27-2.28s2.28 1.02 2.28 2.28-1.02 2.27-2.28 2.27-2.27-1.02-2.27-2.27M33.76 40.3c0-1.14.92-2.06 2.06-2.06s2.06.92 2.06 2.06-.92 2.06-2.06 2.06-2.06-.92-2.06-2.06M27.64 40.3c0-1 .81-1.81 1.8-1.81s1.81.81 1.81 1.81-.81 1.8-1.81 1.8-1.8-.8-1.8-1.8M22.53 40.3c0-.86.69-1.55 1.54-1.55s1.54.69 1.54 1.55-.69 1.54-1.54 1.54-1.54-.69-1.54-1.54M17.66 40.3c0-.72.58-1.29 1.29-1.29s1.29.57 1.29 1.29-.57 1.29-1.29 1.29-1.29-.58-1.29-1.29M13.53 40.3c0-.57.46-1.03 1.03-1.03s1.03.46 1.03 1.03-.46 1.03-1.03 1.03-1.03-.46-1.03-1.03M9.63 40.3c0-.43.34-.78.77-.78s.77.35.77.78-.35.77-.77.77-.77-.35-.77-.77M6.33 40.3c0-.29.23-.52.52-.52s.51.23.51.52-.23.51-.51.51-.52-.23-.52-.51M40.18 47.23c0-1.26 1.02-2.28 2.27-2.28s2.28 1.02 2.28 2.28-1.02 2.27-2.28 2.27-2.27-1.02-2.27-2.27M33.76 47.23c0-1.14.92-2.07 2.06-2.07s2.06.93 2.06 2.07-.92 2.06-2.06 2.06-2.06-.92-2.06-2.06M33.76 54.16c0-1.14.92-2.06 2.06-2.06s2.06.92 2.06 2.06-.92 2.06-2.06 2.06-2.06-.92-2.06-2.06"/></mask><circle fill="#0d3880" class="kk5w08d" cx="32.98" cy="32.98" r="32.98" mask="url(#jobStreetCutArrowOutOfCircle)"/><path fill="#000" class="kk5w08f" d="M82.79 17.04h-5.98V12.2h5.98v4.84Zm0 29.92c0 1.86-.55 3.41-1.64 4.66-1.25 1.43-3.01 2.15-5.3 2.15h-3.38v-5.02h2.26c1.39 0 2.08-.72 2.08-2.15V21.07h5.98v25.9ZM100.97 32.94c0-2.92-.45-4.84-1.36-5.76-.69-.7-1.61-1.05-2.76-1.05s-2.02.35-2.71 1.05c-.9.91-1.36 2.83-1.36 5.76s.45 4.89 1.36 5.8c.69.7 1.6 1.05 2.71 1.05s2.06-.35 2.76-1.05c.9-.91 1.36-2.85 1.36-5.8m5.98 0c0 2.28-.18 4.1-.55 5.44-.4 1.49-1.11 2.77-2.15 3.84-1.86 1.95-4.32 2.92-7.4 2.92s-5.5-.97-7.35-2.92c-1.04-1.07-1.75-2.34-2.15-3.84-.37-1.34-.55-3.15-.55-5.44 0-4.26.91-7.35 2.74-9.27s4.26-2.88 7.31-2.88 5.53.96 7.35 2.88c1.83 1.92 2.74 5.01 2.74 9.27M124.99 32.94c0-2.1-.17-3.61-.5-4.52-.6-1.52-1.76-2.28-3.48-2.28s-2.88.76-3.48 2.28c-.33.91-.5 2.42-.5 4.52s.17 3.61.5 4.52c.6 1.55 1.76 2.33 3.48 2.33s2.87-.78 3.48-2.33c.33-.91.5-2.42.5-4.52m5.98 0c0 2.44-.11 4.26-.32 5.48-.34 1.98-1.04 3.5-2.1 4.57-1.43 1.43-3.37 2.15-5.8 2.15s-4.42-.84-5.94-2.51v2.24h-5.76V12.34h5.98v10.83c1.43-1.58 3.34-2.37 5.74-2.37s4.36.72 5.78 2.15c1.06 1.07 1.76 2.59 2.09 4.57.21 1.22.32 3.03.32 5.44M153.04 37.37c0 2.53-.98 4.48-2.92 5.85-1.83 1.28-4.22 1.92-7.17 1.92-2.22 0-4.04-.2-5.44-.59-1.77-.52-3.33-1.46-4.71-2.83l3.88-3.88c1.49 1.49 3.61 2.24 6.35 2.24s4.2-.82 4.2-2.47c0-1.31-.84-2.04-2.51-2.19l-3.75-.37c-4.63-.46-6.94-2.68-6.94-6.67 0-2.37.93-4.26 2.79-5.66 1.7-1.28 3.84-1.92 6.39-1.92 4.08 0 7.11.93 9.09 2.79l-3.65 3.7c-1.19-1.07-3.03-1.6-5.53-1.6-2.25 0-3.38.76-3.38 2.28 0 1.22.82 1.9 2.47 2.06l3.75.37c4.72.46 7.08 2.79 7.08 6.99M167.16 44.86h-3.24c-2.25 0-4-.72-5.25-2.15-1.1-1.25-1.64-2.8-1.64-4.66V26.26h-2.51v-4.52h2.51v-7.03h5.98v7.03h4.16v4.52h-4.16v11.42c0 1.43.68 2.15 2.03 2.15h2.12v5.02ZM188.35 23.02l-4.48 4.52c-.94-.94-1.99-1.42-3.15-1.42-1.01 0-1.87.35-2.6 1.05-.82.82-1.23 1.93-1.23 3.33v14.34h-5.94v-23.8h5.8v2.28c1.43-1.7 3.43-2.56 5.98-2.56 2.25 0 4.13.75 5.62 2.24M203.88 30.74c-.03-.97-.21-1.83-.55-2.56-.73-1.64-2.06-2.47-3.97-2.47s-3.24.82-3.97 2.47c-.34.73-.52 1.58-.55 2.56h9.04Zm5.85 4.07h-14.89c0 1.58.46 2.86 1.39 3.84.93.97 2.2 1.46 3.81 1.46 2.1 0 3.9-.75 5.39-2.24l3.61 3.52c-1.31 1.31-2.59 2.24-3.84 2.79-1.43.64-3.17.96-5.21.96-7.34 0-11.01-4.07-11.01-12.2 0-3.81.96-6.81 2.88-9 1.86-2.1 4.35-3.15 7.49-3.15s5.79 1.08 7.67 3.24c1.8 2.07 2.69 4.78 2.69 8.13v2.65ZM227.36 30.74c-.03-.97-.21-1.83-.55-2.56-.73-1.64-2.06-2.47-3.97-2.47s-3.24.82-3.97 2.47c-.34.73-.52 1.58-.55 2.56h9.04Zm5.85 4.07h-14.89c0 1.58.46 2.86 1.39 3.84s2.2 1.46 3.81 1.46c2.1 0 3.9-.75 5.39-2.24l3.61 3.52c-1.31 1.31-2.59 2.24-3.84 2.79-1.43.64-3.17.96-5.21.96-7.34 0-11.01-4.07-11.01-12.2 0-3.81.96-6.81 2.88-9 1.86-2.1 4.35-3.15 7.49-3.15s5.79 1.08 7.67 3.24c1.8 2.07 2.69 4.78 2.69 8.13v2.65ZM247.87 44.86h-3.24c-2.25 0-4-.72-5.25-2.15-1.1-1.25-1.64-2.8-1.64-4.66V26.26h-2.51v-4.52h2.51v-7.03h5.98v7.03h4.16v4.52h-4.16v11.42c0 1.43.68 2.15 2.03 2.15h2.12v5.02ZM201.26 56.85c0-.75-.06-1.29-.18-1.62-.22-.55-.63-.82-1.25-.82s-1.03.27-1.25.82c-.12.33-.18.87-.18 1.62s.06 1.29.18 1.62c.22.56.63.83 1.25.83s1.03-.28 1.25-.83c.12-.33.18-.87.18-1.62m2.14 0c0 .87-.04 1.53-.11 1.96-.12.71-.37 1.25-.75 1.64-.51.51-1.21.77-2.08.77s-1.58-.3-2.13-.9v.8h-2.06V49.47h2.14v3.88c.51-.57 1.2-.85 2.06-.85s1.56.26 2.07.77c.38.38.63.93.75 1.64.08.44.11 1.09.11 1.95M211.7 52.59l-3.65 9.9c-.17.48-.39.85-.64 1.1-.44.44-1.05.65-1.83.65h-.83v-1.91h.49c.32 0 .55-.06.7-.16.15-.11.27-.31.37-.61l.36-1.05-2.91-7.92H206l1.77 5.27 1.7-5.27h2.24ZM222.08 58.43c0 .91-.35 1.6-1.05 2.09-.66.46-1.51.69-2.57.69-.8 0-1.45-.07-1.95-.21-.63-.19-1.2-.52-1.69-1.01l1.39-1.39c.53.54 1.29.8 2.28.8s1.5-.29 1.5-.88c0-.47-.3-.73-.9-.79l-1.34-.13c-1.66-.16-2.49-.96-2.49-2.39 0-.85.33-1.53 1-2.03.61-.46 1.37-.69 2.29-.69 1.46 0 2.55.33 3.26 1l-1.31 1.33c-.43-.38-1.09-.57-1.98-.57-.81 0-1.21.27-1.21.82 0 .44.29.68.88.74l1.34.13c1.69.16 2.54 1 2.54 2.5M228.2 56.06c-.01-.35-.08-.65-.2-.92-.26-.59-.74-.88-1.42-.88s-1.16.29-1.42.88c-.12.26-.19.57-.2.92h3.24Zm2.09 1.46h-5.34c0 .57.17 1.03.5 1.37.33.35.79.52 1.37.52.75 0 1.4-.27 1.93-.8l1.29 1.26c-.47.47-.93.8-1.37 1-.51.23-1.14.34-1.87.34-2.63 0-3.94-1.46-3.94-4.37 0-1.36.34-2.44 1.03-3.22.67-.75 1.56-1.13 2.68-1.13s2.07.39 2.75 1.16c.64.74.97 1.71.97 2.91v.95ZM236.61 56.06c-.01-.35-.08-.65-.2-.92-.26-.59-.74-.88-1.42-.88s-1.16.29-1.42.88c-.12.26-.19.57-.2.92h3.24Zm2.09 1.46h-5.34c0 .57.17 1.03.5 1.37.33.35.79.52 1.37.52.75 0 1.4-.27 1.93-.8l1.29 1.26c-.47.47-.93.8-1.37 1-.51.23-1.14.34-1.87.34-2.63 0-3.94-1.46-3.94-4.37 0-1.36.34-2.44 1.03-3.22.67-.75 1.56-1.13 2.68-1.13s2.07.39 2.75 1.16c.64.74.97 1.71.97 2.91v.95ZM247.87 61.12h-2.63l-2.09-3.55-.9 1.01v2.54h-2.14V49.47h2.14v6.61l2.83-3.49h2.56l-3.05 3.44 3.28 5.09z"/></svg>